<?xml version="1.0" encoding="UTF-8" standalone="no"?>
<svg xmlns:dc="http://purl.org/dc/elements/1.1/" xmlns:cc="http://creativecommons.org/ns#" xmlns:rdf="http://www.w3.org/1999/02/22-rdf-syntax-ns#" xmlns:svg="http://www.w3.org/2000/svg" xmlns="http://www.w3.org/2000/svg" id="svg4228" version="1.1" viewBox="0 0 66.145836 42.994789" height="42.994789mm" width="66.145836mm">
  <defs id="defs4222">
    <filter style="color-interpolation-filters:sRGB" id="filter4218" x="-0.08630874" width="1.1726176" y="-0.08630874" height="1.1726176">
      <feGaussianBlur stdDeviation="0.2975048" id="feGaussianBlur4220" />
    </filter>
    <clipPath clipPathUnits="userSpaceOnUse" id="clipPath4106">
      <circle style="opacity:0.3;vector-effect:none;fill:#000000;fill-opacity:1;stroke:none;stroke-width:0.376404;stroke-linecap:butt;stroke-linejoin:miter;stroke-miterlimit:4;stroke-dasharray:none;stroke-dashoffset:0;stroke-opacity:1;stop-color:#000000;stop-opacity:1" id="circle4108" cx="-180.61589" cy="102.99216" r="21.095467" />
    </clipPath>
  </defs>
  <metadata id="metadata4225">
    <rdf:RDF>
      <cc:Work rdf:about="">
        <dc:format>image/svg+xml</dc:format>
        <dc:type rdf:resource="http://purl.org/dc/dcmitype/StillImage" />
        <dc:title></dc:title>
      </cc:Work>
    </rdf:RDF>
  </metadata>
  <g transform="matrix(1.2886114,0,0,1.2886114,-65.886066,-80.076343)" id="layer1">
    <g transform="translate(2.7639521,2.4008672)" id="g4861">
      <path d="m 50.336723,62.949055 v 1.70703 h 2.970964 c 0.138522,0 0.267592,0.0361 0.376953,0.0703 6.88e-4,6.6e-4 0.0013,0.001 0.002,0.002 0.180756,0.0615 0.329854,0.16295 0.453125,0.2793 0.02005,0.004 0.03837,0.0146 0.05273,0.0293 0.07268,0.0769 0.121636,0.16179 0.164062,0.23242 0.0094,0.0153 0.01483,0.0328 0.01563,0.0508 0.09023,0.16759 0.148438,0.3488 0.148438,0.56641 v 9.35937 c 0,0.23055 -0.06057,0.43662 -0.16211,0.61524 -6.62e-4,6.9e-4 -0.0013,10e-4 -0.002,0.002 -0.0424,0.0706 -0.09138,0.15549 -0.164062,0.23242 -0.0141,0.0154 -0.03245,0.0263 -0.05273,0.0312 -0.123111,0.11598 -0.272772,0.21599 -0.453125,0.27734 -6.61e-4,6.9e-4 -0.0013,0.001 -0.002,0.002 -0.109361,0.0342 -0.238431,0.0703 -0.376953,0.0703 h -2.970953 v 1.70704 h 47.388672 v -1.70712 H 57.192192 c -0.138514,0 -0.267596,-0.0361 -0.376953,-0.0703 -6.88e-4,-6.6e-4 -0.0013,-10e-4 -0.002,-0.002 -0.182445,-0.0621 -0.320611,-0.16515 -0.439453,-0.2793 -0.01935,-0.005 -0.03695,-0.0149 -0.05078,-0.0293 -0.06657,-0.0705 -0.131424,-0.1521 -0.179687,-0.23242 -6.88e-4,-6.6e-4 -0.0013,-0.001 -0.002,-0.002 -0.101496,-0.17864 -0.162112,-0.38471 -0.162112,-0.61526 v -9.35935 c 0,-0.2176 0.05818,-0.39881 0.148438,-0.56641 7.94e-4,-0.018 0.0062,-0.0355 0.01563,-0.0508 0.04827,-0.0802 0.113106,-0.16193 0.179687,-0.23242 0.01382,-0.0144 0.03143,-0.0245 0.05078,-0.0293 0.118834,-0.11416 0.25699,-0.21724 0.439453,-0.2793 6.62e-4,-6.7e-4 0.0013,-0.001 0.002,-0.002 0.04946,-0.0155 0.131357,-0.0398 0.232423,-0.0527 0.03876,-0.005 0.06827,-0.009 0.08984,-0.0117 0.02158,-0.003 0.02255,-0.006 0.05469,-0.006 h 40.533216 v -1.70703 z m 6.828125,2.5293 c -0.08623,0.0255 -0.358781,0.12052 -0.246094,0.12109 l -0.002,0.002 c -0.0021,0.002 -0.0044,0.005 -0.0059,0.006 1.03e-4,-1e-4 -0.002,0.002 -0.002,0.002 0.0011,-5e-4 -0.01399,0.0249 -0.02539,0.0449 -6e-5,8.5e-4 1.6e-5,0.004 0,0.004 -1.29e-4,6.7e-4 -0.01134,0.0326 -0.01172,0.0332 -0.0353,0.0695 -0.07031,0.16204 -0.07031,0.19532 v 9.35937 c 0,0.0455 0.03619,0.15289 0.07031,0.21289 0.01593,0.026 0.04578,0.0717 0.04687,0.0742 6.35e-4,6.1e-4 0.0013,10e-4 0.002,0.002 -3.1e-5,-1e-5 0.0021,0.002 0.002,0.002 0.04615,0.0417 0.134544,0.0967 0.152343,0.10352 0.02473,0.008 0.0751,0.0137 0.117188,0.0137 H 97.725347 V 65.478355 H 57.192192 c -0.01675,0 -0.0196,-1.7e-4 -0.02734,0 z m -6.828125,0.002 v 10.17383 h 2.970964 c 0.04168,0 0.09156,-0.006 0.117188,-0.0137 0.01792,-0.007 0.106145,-0.0618 0.152343,-0.10352 l 0.0039,-0.004 c 0.02105,-0.0227 0.06217,-0.0716 0.06445,-0.0742 0.02782,-0.0489 0.05273,-0.15225 0.05273,-0.21289 v -9.35937 c 0,-0.0501 -0.02478,-0.14122 -0.05469,-0.19922 l 0.0039,0.006 c -2.91e-4,-5e-4 -0.0082,-0.018 -0.01172,-0.0273 -0.01088,-0.0141 -0.02445,-0.0349 -0.03906,-0.0527 l -0.0059,-0.004 c -0.0019,-0.002 -0.0015,-0.002 -0.0078,-0.008 -0.03742,-0.0336 -0.126444,-0.0805 -0.158202,-0.0918 -0.04641,-0.0145 -0.09821,-0.0293 -0.117188,-0.0293 z" style="fill:#666666;stroke-width:0.264583" id="path4008" />
      <circle r="4.1363802" cy="70.566399" cx="62.087654" id="path4116" style="opacity:0.288294;vector-effect:none;fill:#000000;fill-opacity:1;stroke:none;stroke-width:0.822221;stroke-linecap:butt;stroke-linejoin:miter;stroke-miterlimit:4;stroke-dasharray:none;stroke-dashoffset:0;stroke-opacity:1;filter:url(#filter4218);stop-color:#000000;stop-opacity:1" />
      <g transform="matrix(0.18355639,0,0,0.18355639,95.240854,51.661515)" clip-path="url(#clipPath4106)" id="g4104">
        <path style="opacity:1;fill:#ffd102;fill-opacity:1;stroke:none;stroke-width:0.264583px;stroke-linecap:butt;stroke-linejoin:miter;stroke-opacity:1" d="m -180.61589,102.99216 c 2.41473,-7.355898 -1.65175,-16.345453 -13.57789,-16.57739 -13.72608,1.520509 -12.81724,13.69431 -7.30461,20.39775 4.33572,-9.742398 15.23433,-9.535704 20.8825,-3.82036 z" id="path4086" />
        <path id="path4088" d="m -180.61589,102.99216 c -5.0993,-5.307282 -15.27274,-6.839186 -21.14539,3.4701 -5.54624,12.64739 5.451,17.94721 14.01267,16.52486 -6.26931,-8.62605 -0.641,-17.96117 7.13272,-19.99496 z" style="opacity:1;fill:#4ec825;fill-opacity:1;stroke:none;stroke-width:0.264583px;stroke-linecap:butt;stroke-linejoin:miter;stroke-opacity:1" />
        <path style="opacity:1;fill:#14a0f5;fill-opacity:1;stroke:none;stroke-width:0.264583px;stroke-linecap:butt;stroke-linejoin:miter;stroke-opacity:1" d="m -180.61589,102.99216 c -6.96007,1.71087 -13.3297,9.60318 -7.5675,20.0475 8.17984,11.12687 18.26824,4.2529 21.31728,-3.8729 -10.60503,1.11635 -15.87533,-8.42547 -13.74978,-16.1746 z" id="path4090" />
        <path id="path4092" d="m -180.61589,102.99216 c -2.19768,6.66723 1.78452,16.7816 13.57789,16.5774 13.72608,-1.52052 12.81724,-13.69431 7.30461,-20.397758 -4.33572,9.742398 -15.23433,9.535708 -20.8825,3.820358 z" style="opacity:1;fill:#ba5dd2;fill-opacity:1;stroke:none;stroke-width:0.264583px;stroke-linecap:butt;stroke-linejoin:miter;stroke-opacity:1" />
        <path style="opacity:1;fill:#fe4c42;fill-opacity:1;stroke:none;stroke-width:0.264583px;stroke-linecap:butt;stroke-linejoin:miter;stroke-opacity:1" d="m -180.61589,102.99216 c 4.88941,5.37139 14.98145,6.74227 21.14539,-3.470098 5.54624,-12.647394 -5.451,-17.94721 -14.01267,-16.524856 6.26931,8.626042 0.641,17.961174 -7.13272,19.994954 z" id="path4094" />
        <path id="path4096" d="m -180.61589,102.99216 c 7.35927,-1.84517 13.3297,-9.603181 7.5675,-20.047494 -8.17984,-11.126882 -18.26824,-4.2529 -21.31728,3.8729 10.60503,-1.11636 15.87533,8.425465 13.74978,16.174594 z" style="opacity:1;fill:#ffa103;fill-opacity:1;stroke:none;stroke-width:0.264583px;stroke-linecap:butt;stroke-linejoin:miter;stroke-opacity:1" />
      </g>
      <path id="path847" style="font-style:normal;font-variant:normal;font-weight:normal;font-stretch:normal;font-size:14.3952px;line-height:1.25;font-family:'GM Exp Norm';-inkscape-font-specification:'GM Exp Norm';letter-spacing:0px;word-spacing:0px;stroke-width:1.02014" d="m 13.166016,78.283203 c -0.761699,0 -1.414914,0.272336 -1.958985,0.816406 -0.507799,0.5078 -0.761719,1.140646 -0.761719,1.902344 v 29.925777 h 5.441407 V 98.685547 c 0,-0.906784 0.454544,-1.361328 1.361328,-1.361328 h 6.800781 v -5.439453 h -6.800781 c -0.906784,0 -1.361328,-0.454544 -1.361328,-1.361328 v -5.439454 c 0,-0.906784 0.454544,-1.361328 1.361328,-1.361328 h 9.519531 v -5.439453 z m 25.789062,0 c -2.248824,0 -4.171637,0.796637 -5.767578,2.392578 -1.595938,1.595941 -2.392578,3.518754 -2.392578,5.767578 v 24.484371 h 5.439453 V 98.685547 c 0,-0.906784 0.454544,-1.361328 1.361328,-1.361328 h 2.720703 c 0.906784,0 1.359375,0.454544 1.359375,1.361328 v 12.242183 h 5.441407 V 86.443359 c 0,-2.248824 -0.798594,-4.171637 -2.394532,-5.767578 -1.595941,-1.595941 -3.518751,-2.392578 -5.767578,-2.392578 z m 12.1875,0 5.441406,32.644527 h 5.439454 l 5.441406,-32.644527 h -5.441406 l -2.339844,14.144531 c -0.108815,0.616615 -0.235776,0.925782 -0.38086,0.925782 -0.145083,0 -0.25363,-0.235503 -0.326172,-0.707032 L 56.583984,78.283203 Z m 20.347656,0 V 110.92773 H 87.8125 v -5.4414 h -9.521484 c -0.906785,0 -1.359375,-0.45455 -1.359375,-1.36133 V 78.283203 Z m 28.509766,0 c -2.248824,0 -4.171637,0.796637 -5.767578,2.392578 -1.595941,1.595941 -2.392578,3.518754 -2.392578,5.767578 v 16.322261 c 0,2.24883 0.796637,4.17164 2.392578,5.76758 1.595941,1.59594 3.518754,2.39453 5.767578,2.39453 2.24883,0 4.17164,-0.79859 5.76758,-2.39453 1.59594,-1.59594 2.39258,-3.51875 2.39258,-5.76758 V 86.443359 c 0,-2.248824 -0.79664,-4.171637 -2.39258,-5.767578 C 104.17164,79.07984 102.24883,78.283203 100,78.283203 Z m 20.34766,0 c -2.24883,0 -4.17164,0.796637 -5.76758,2.392578 -1.59594,1.595941 -2.39258,3.518754 -2.39258,5.767578 v 24.484371 h 5.43945 V 98.685547 c 0,-0.906784 0.45455,-1.361328 1.36133,-1.361328 h 2.7207 c 0.90679,0 1.35938,0.454544 1.35938,1.361328 v 12.242183 h 5.44141 V 86.443359 c 0,-2.248824 -0.7986,-4.171637 -2.39454,-5.767578 -1.59594,-1.595941 -3.51875,-2.392578 -5.76757,-2.392578 z m 14.9082,0 c -0.7617,0 -1.41491,0.272336 -1.95898,0.816406 -0.5078,0.5078 -0.76172,1.140646 -0.76172,1.902344 v 27.205077 c 0,0.7617 0.25392,1.41492 0.76172,1.95899 0.54407,0.5078 1.19728,0.76171 1.95898,0.76171 h 5.44141 c 2.24882,0 4.16968,-0.79859 5.76562,-2.39453 1.59594,-1.59594 2.39453,-3.51875 2.39453,-5.76758 V 86.443359 c 0,-2.248824 -0.79859,-4.171637 -2.39453,-5.767578 -1.59594,-1.595941 -3.5168,-2.392578 -5.76562,-2.392578 z m 20.34766,0 c -0.7617,0 -1.41492,0.272336 -1.95899,0.816406 -0.5078,0.5078 -0.76172,1.140646 -0.76172,1.902344 v 27.205077 c 0,0.7617 0.25392,1.41492 0.76172,1.95899 0.54407,0.5078 1.19729,0.76171 1.95899,0.76171 h 13.60156 v -5.4414 h -9.52149 c -0.90678,0 -1.35937,-0.45455 -1.35937,-1.36133 v -5.439453 c 0,-0.906784 0.45259,-1.361328 1.35937,-1.361328 h 6.80079 v -5.439453 h -6.80079 c -0.90678,0 -1.35937,-0.454544 -1.35937,-1.361328 v -5.439454 c 0,-0.906784 0.45259,-1.361328 1.35937,-1.361328 h 9.52149 v -5.439453 z m 20.34765,0 c -0.7617,0 -1.41296,0.272336 -1.95703,0.816406 -0.5078,0.5078 -0.76172,1.140646 -0.76172,1.902344 v 29.925777 h 5.43946 V 98.685547 c -10e-6,-0.906784 0.45454,-1.361328 1.36132,-1.361328 h 1.35938 c 0.7617,0 1.3965,0.272335 1.9043,0.816406 0.54407,0.5078 0.8164,1.142599 0.8164,1.904295 v 10.88281 h 5.44141 v -10.88281 c 0,-2.067465 -0.69005,-3.879781 -2.06836,-5.439451 1.37831,-1.559668 2.06836,-3.373937 2.06836,-5.441407 v -2.720703 c 0,-2.248824 -0.79859,-4.171637 -2.39453,-5.767578 -1.59594,-1.595941 -3.51876,-2.392578 -5.76758,-2.392578 z M 38.955078,83.722656 c 0.761701,0 1.3965,0.272336 1.904297,0.816406 0.544071,0.5078 0.816406,1.142599 0.816406,1.904297 v 4.080079 c 0,0.906784 -0.452591,1.361328 -1.359375,1.361328 h -2.720703 c -0.906784,0 -1.361328,-0.454544 -1.361328,-1.361328 v -4.080079 c 0,-0.761698 0.253922,-1.396497 0.761719,-1.904297 0.54407,-0.54407 1.197286,-0.816406 1.958984,-0.816406 z m 61.044922,0 c 0.7617,0 1.3965,0.272336 1.9043,0.816406 0.54407,0.5078 0.8164,1.142599 0.8164,1.904297 v 16.322261 c 0,0.7617 -0.27233,1.41492 -0.8164,1.95899 -0.5078,0.5078 -1.1426,0.76172 -1.9043,0.76172 -0.761698,0 -1.414914,-0.25392 -1.958984,-0.76172 -0.5078,-0.54407 -0.761719,-1.19729 -0.761719,-1.95899 V 86.443359 c 0,-0.761698 0.253919,-1.396497 0.761719,-1.904297 0.54407,-0.54407 1.197286,-0.816406 1.958984,-0.816406 z m 20.34766,0 c 0.7617,0 1.3965,0.272336 1.90429,0.816406 0.54407,0.5078 0.81641,1.142599 0.81641,1.904297 v 4.080079 c 0,0.906784 -0.45259,1.361328 -1.35938,1.361328 h -2.7207 c -0.90678,0 -1.36133,-0.454544 -1.36133,-1.361328 v -4.080079 c 0,-0.761698 0.25392,-1.396497 0.76172,-1.904297 0.54407,-0.54407 1.19729,-0.816406 1.95899,-0.816406 z m 20.34961,0 c 0.76169,0 1.39454,0.272336 1.90234,0.816406 0.54407,0.5078 0.81641,1.142599 0.81641,1.904297 v 16.322261 c 0,0.7617 -0.27234,1.41492 -0.81641,1.95899 -0.5078,0.5078 -1.14065,0.76172 -1.90234,0.76172 -0.94306,0 -1.52457,-0.0368 -1.74219,-0.10938 -0.65289,-0.14508 -0.97852,-0.56279 -0.97852,-1.25195 V 85.083984 c 0,-0.689156 0.32563,-1.106869 0.97852,-1.251953 0.21763,-0.07254 0.79913,-0.109375 1.74219,-0.109375 z m 39.33593,0 h 1.35938 c 0.7617,0 1.3965,0.272336 1.9043,0.816406 0.54407,0.5078 0.8164,1.142599 0.8164,1.904297 v 2.720703 c 0,0.761699 -0.27233,1.414914 -0.8164,1.958985 -0.5078,0.5078 -1.1426,0.761719 -1.9043,0.761719 h -1.35938 c -0.90678,0 -1.36133,-0.454544 -1.36132,-1.361328 v -5.439454 c -10e-6,-0.906784 0.45454,-1.361328 1.36132,-1.361328 z" transform="matrix(0.26458334,0,0,0.26458334,47.572771,60.548188)" />
    </g>
  </g>
</svg>
